<svg xmlns="http://www.w3.org/2000/svg" viewBox="0 0 128 128"><circle cx="64" cy="64" r="64" fill="#8a47d4"/><path fill="#fff" d="M117.66 98.881c-.984-3-2.014-5.926-2.85-7.995-2.377-5.873-4.403-9.74-7.558-14.423-1.653-2.455-2.268-3.268-4.578-6.054-.942-1.135-1.236-1.631-1.265-2.128-.055-.948-.54-2.506-.862-2.774-.414-.343-.342-.513.271-.648.8-.175 1.62-1.023 1.77-1.827.184-.98-.229-2.27-.961-3.002-.547-.546-.594-.671-.424-1.119.348-.917-.271-2.83-1.311-4.045-.175-.203-.373-.828-.442-1.388-.386-3.154-1.748-6.755-3.575-9.452-3.845-5.676-12.801-12.55-19.788-15.187-4.458-1.683-8.435-2.341-15.138-2.505-5.467-.134-8.155.085-13.97 1.14-2.623.476-5.527.262-7.47-.55-.803-.335-2.52-.546-3.154-.387-.374.094-.477.234-.477.649 0 .404.2.693.843 1.22.449.367.794.694.787.742v.003h-.001c-.031.03-.657-.146-1.391-.392-2.738-.92-5.174-.765-7.783.496-2.696 1.303-5.499 4.446-6.305 7.07-.436 1.418-.678 3.091-.448 3.091.093 0 .648-.258 1.233-.575 1.014-.55 3.058-1.27 3.61-1.273.142-.001-.073.238-.478.531-1.404 1.018-2.822 3.377-2.83 4.707-.01 1.69.83 1.876 2.387.528 1.075-.93 2.304-1.712 3.252-2.067l.555-.208-.672.705c-.767.805-1.085 1.359-1.283 2.237-.19.843.123 1.875.625 2.062.5.186.739.1 1.793-.647 2.062-1.46 3.42-1.839 6.568-1.83 1.784.006 2.931.118 4.44.436 1.215.256 2.388.395 2.91.345l.872-.084.399 1.221c1.099 3.369 3.6 5.953 6.665 6.884l1.269.385-.109 1.88c-.179 3.102.574 5.65 2.373 8.032l.874 1.158-.844 2.173c-1.622 4.174-2.637 5.844-6.062 9.97-2.264 2.727-2.651 3.323-2.974 4.586-.319 1.247-.18 2.094.532 3.232.23.367.466.853.523 1.08.058.226-.092 4.18-.331 8.788-.726 13.955-.782 14.69-1.18 15.565-.54 1.185-.632 1.74-.388 2.328.2.482.334.548 1.35.666 1.072.125 1.178.185 2.163 1.22l1.035 1.088h4.853c4.785 0 4.851-.005 4.851-.384v-.383l.488.383c.392.309.752.384 1.84.384.743 0 1.403-.084 1.466-.187.251-.406-.178-.987-1.232-1.668-1.242-.803-2.054-1.003-5.152-1.273-2.847-.248-3.651-.552-5.134-1.938l-1.211-1.133.111-3.885c.162-5.626.477-11.616.781-14.803.256-2.687.291-2.829 1.1-4.456.796-1.598.837-1.757.837-3.26 0-1.81.204-2.426 1.4-4.23 1.038-1.57 2.573-3.128 5.446-5.532 1.272-1.065 2.833-2.43 3.469-3.035l1.154-1.099 1.251.572c.688.314 1.48.628 1.76.696.279.068.508.16.508.203s-.494 1.08-1.096 2.303c-1.05 2.126-3.084 5.32-4.647 7.292-.404.508-.868 1.274-1.033 1.702-.298.775-.296.784.358 2.22.656 1.44.778 2.095 1.15 6.162.227 2.484 1.397 12.246 1.86 15.517l.48 3.397-.48 1.066c-.887 1.978-.533 2.898 1.188 3.083.932.101 1.11.2 2.136 1.2l1.118 1.092 4.895-.05 4.895-.049-.064-.462-.064-.463.446.416c.387.361.646.417 1.961.417 1.663 0 1.812-.127 1.15-.969-.421-.536-2.071-1.362-3.204-1.605-.429-.092-1.529-.224-2.445-.293-1.948-.146-3.461-.468-4.337-.92-.785-.407-2.371-1.879-2.69-2.499-.43-.834-2.312-12.824-2.98-18.991l-.323-2.98.578-.813c.318-.447.84-1.562 1.16-2.478 1.046-2.996 2.646-5.882 5.823-10.504.674-.98.778-1.058 1.289-.96 2.68.513 3.819.64 5.783.64 1.92 0 4.985-.306 6.452-.645.316-.073.414.014.499.436.158.788.956 1.622 1.896 1.981.757.29.926.295 1.807.05.609-.17 1.174-.218 1.51-.128.565.151 1.33.038 1.698-.25.14-.11.483-.036.964.21.876.447 1.817.49 2.362.11.365-.256.452-.205 1.483.878 3.657 3.841 8.375 12.198 11.254 19.931.908 2.44 2.017 5.886 2.956 9.103"/></svg>
