<?xml version="1.0" encoding="UTF-8" standalone="no"?>
<!-- Created with Inkscape (http://www.inkscape.org/) -->

<svg
   width="316.13678"
   height="316.13678"
   viewBox="0 0 83.644519 83.644525"
   version="1.1"
   id="svg1"
   xml:space="preserve"
   xmlns="http://www.w3.org/2000/svg"
   xmlns:svg="http://www.w3.org/2000/svg"><defs
     id="defs1" /><g
     id="layer1"
     transform="translate(-25.911068,-25.911068)"><g
       id="g3"><circle
         style="fill:#8a47d4;fill-opacity:1;stroke:none;stroke-width:1.058;stroke-linecap:round;stroke-linejoin:round;stroke-dasharray:none"
         id="circle3"
         cx="67.73333"
         cy="67.73333"
         r="41.822262" /><path
         d="m 102.79838,90.52729 c -0.64244,-1.960577 -1.31532,-3.872275 -1.86242,-5.224488 -1.552848,-3.837955 -2.876484,-6.364402 -4.938203,-9.425264 -1.080348,-1.603907 -1.48254,-2.13513 -2.992066,-3.955831 -0.615136,-0.741943 -0.807416,-1.066013 -0.826306,-1.390612 -0.03603,-0.619434 -0.352663,-1.638018 -0.563273,-1.81281 -0.270541,-0.224529 -0.223864,-0.33513 0.17725,-0.42323 0.521864,-0.114622 1.057889,-0.668505 1.156519,-1.194242 0.120097,-0.640176 -0.149631,-1.482881 -0.628386,-1.961637 -0.357068,-0.357067 -0.388208,-0.438683 -0.276985,-0.731222 0.22785,-0.599293 -0.177182,-1.849231 -0.856795,-2.643249 -0.113841,-0.133003 -0.243585,-0.541162 -0.288355,-0.906922 -0.252357,-2.0616 -1.14258,-4.414703 -2.336291,-6.176884 -2.512734,-3.709343 -8.365369,-8.201053 -12.930994,-9.924458 -2.913515,-1.099777 -5.512358,-1.529912 -9.892419,-1.63711 -3.572278,-0.08743 -5.329282,0.05599 -9.128642,0.745174 -1.714744,0.311045 -3.612394,0.171272 -4.881872,-0.359151 -0.524819,-0.21928 -1.647138,-0.357051 -2.060856,-0.253214 -0.244317,0.06132 -0.312126,0.153336 -0.312126,0.424263 0,0.263874 0.130699,0.452551 0.550871,0.796851 0.293437,0.240449 0.519275,0.454067 0.514697,0.485242 0,0 0,5.16e-4 0,5.16e-4 0,0 0,5.17e-4 0,5.17e-4 0,0 -5.17e-4,5.17e-4 -5.17e-4,5.17e-4 0,0 0,5.17e-4 0,5.17e-4 0,0 -5.17e-4,0 -5.17e-4,0 -0.02027,0.01988 -0.42935,-0.09524 -0.908988,-0.256316 -1.788976,-0.600809 -3.38093,-0.499628 -5.085478,0.324012 -1.761904,0.851355 -3.593568,2.905243 -4.120678,4.620389 -0.284783,0.926493 -0.443164,2.020032 -0.292489,2.020032 0.06093,0 0.423454,-0.169206 0.805636,-0.376204 0.66241,-0.358777 1.998502,-0.830091 2.359029,-0.831991 0.09311,-5.08e-4 -0.04758,0.155631 -0.312126,0.347266 -0.917892,0.664917 -1.844499,2.206529 -1.849499,3.075781 -0.0064,1.104257 0.542499,1.22572 1.559594,0.345199 0.702657,-0.608304 1.505697,-1.118617 2.125452,-1.350822 L 45.063915,52.742 44.624666,53.202953 c -0.501064,0.525982 -0.708815,0.887773 -0.838192,1.46141 -0.124349,0.551349 0.08008,1.225718 0.408244,1.347721 0.326256,0.121293 0.482705,0.06507 1.171505,-0.422713 1.347606,-0.954319 2.235207,-1.201693 4.292244,-1.195793 1.165571,0.0034 1.91539,0.07713 2.901632,0.284738 0.793752,0.167083 1.560176,0.258029 1.900659,0.225309 l 0.570508,-0.05478 0.260449,0.797884 c 0.718175,2.201533 2.353186,3.890155 4.355806,4.498433 l 0.82889,0.251664 -0.0708,1.228349 c -0.117062,2.027105 0.374794,3.6921 1.550293,5.248775 l 0.571025,0.756543 -0.551388,1.420069 c -1.059803,2.7281 -1.722996,3.819063 -3.960998,6.514847 -1.479874,1.782583 -1.732628,2.172158 -1.943551,2.997234 -0.208293,0.814791 -0.117274,1.36852 0.347783,2.112015 0.150119,0.239996 0.303931,0.557382 0.341581,0.705384 0.03765,0.148003 -0.05995,2.732481 -0.216524,5.743318 -0.474208,9.119006 -0.510623,9.599882 -0.771013,10.171472 -0.352606,0.774001 -0.413165,1.136444 -0.253731,1.521354 0.130456,0.314948 0.218304,0.358016 0.882117,0.435116 0.701086,0.08136 0.770271,0.1205 1.413867,0.796858 l 0.676444,0.71106 h 3.170866 c 3.127144,0 3.170349,-0.003 3.170349,-0.25063 v -0.25063 l 0.318844,0.25063 c 0.256279,0.20161 0.491364,0.25063 1.201994,0.25063 0.485871,0 0.917118,-0.0549 0.958598,-0.12195 0.163844,-0.26511 -0.116448,-0.644929 -0.805636,-1.090379 -0.811551,-0.524525 -1.341939,-0.655201 -3.3662,-0.831471 -1.860842,-0.16204 -2.386267,-0.360641 -3.354834,-1.266589 l -0.791683,-0.740007 0.07286,-2.539379 c 0.105274,-3.676165 0.311589,-7.590165 0.510047,-9.672795 0.167328,-1.755951 0.190172,-1.848954 0.719335,-2.911967 0.519862,-1.044348 0.546737,-1.148139 0.546737,-2.131136 0,-1.182532 0.133067,-1.585007 0.914156,-2.764172 0.678895,-1.024886 1.682127,-2.043658 3.559473,-3.614767 0.831275,-0.695674 1.851382,-1.587888 2.266528,-1.982824 l 0.754476,-0.718303 0.817521,0.373621 c 0.449378,0.205536 0.966405,0.410253 1.149284,0.454753 0.182881,0.0445 0.332279,0.104208 0.332279,0.132808 0,0.02859 -0.32229,0.705841 -0.716235,1.504818 -0.685247,1.38978 -2.014927,3.476667 -3.036507,4.765083 -0.263645,0.332509 -0.567409,0.833037 -0.674894,1.112594 -0.194625,0.506197 -0.193622,0.512276 0.234094,1.451074 0.428348,0.940186 0.508402,1.368244 0.751375,4.026111 0.148414,1.623491 0.912708,8.002821 1.214913,10.139949 l 0.313676,2.22002 -0.312642,0.696598 c -0.580118,1.292668 -0.348792,1.893454 0.775663,2.014864 0.609462,0.06581 0.726032,0.131008 1.39578,0.784446 l 0.730705,0.71314 3.198771,-0.0326 3.198771,-0.032 -0.04186,-0.30231 -0.04186,-0.3023 0.291455,0.27182 c 0.253195,0.23615 0.422191,0.27233 1.281575,0.27233 1.086586,0 1.184251,-0.0827 0.751375,-0.63304 -0.275287,-0.349967 -1.353423,-0.890129 -2.093412,-1.049027 -0.28031,-0.06018 -0.999318,-0.146203 -1.597835,-0.191203 -1.27328,-0.09571 -2.261764,-0.305644 -2.833936,-0.601514 -0.513603,-0.26559 -1.549987,-1.227617 -1.758549,-1.632458 -0.280914,-0.54531 -1.510207,-8.380289 -1.947167,-12.410612 l -0.21084,-1.947685 0.377754,-0.530717 c 0.207844,-0.292081 0.54913,-1.021023 0.758094,-1.619539 0.683387,-1.957352 1.728905,-3.843644 3.804935,-6.863664 0.440697,-0.641089 0.50882,-0.691769 0.842326,-0.627869 1.751571,0.335588 2.495501,0.41792 3.779098,0.418063 1.254762,1.39e-4 3.257405,-0.199844 4.21628,-0.421163 0.206241,-0.0476 0.270838,0.0091 0.326078,0.285254 0.102977,0.514889 0.624983,1.059923 1.239201,1.294494 0.494772,0.188953 0.60519,0.192254 1.180806,0.03204 0.397522,-0.11065 0.766999,-0.142049 0.98702,-0.0832 0.368812,0.09864 0.868643,0.02482 1.108976,-0.163815 0.09135,-0.0717 0.315824,-0.02279 0.629936,0.13746 0.57277,0.292204 1.187832,0.321001 1.543575,0.07183 0.238496,-0.167048 0.295663,-0.13362 0.96945,0.574125 2.389676,2.510108 5.472741,7.970846 7.354073,13.024528 0.59356,1.594424 1.317929,3.845879 1.931662,5.948474 a 41.822262,41.822262 0 0 0 2.24018,-3.121773 z"
         style="fill:#ffffff;stroke:none;stroke-width:0.926319"
         id="path3" /></g></g></svg>
